<svg width="198" height="58" viewBox="0 0 198 58" fill="none" xmlns="http://www.w3.org/2000/svg">
<path fill-rule="evenodd" clip-rule="evenodd" d="M44.963 12.9105C44.8087 13.315 30.0728 57.7088 30.0941 57.7248C30.0994 57.7354 33.5 57.7567 37.651 57.7727L45.1865 57.8046L48.8692 46.7141C52.5252 35.6928 52.6369 35.3735 52.7221 35.6183C52.7434 35.6875 54.2228 40.1578 56.0056 45.5433C57.7831 50.9343 59.4275 55.8888 59.651 56.5487L60.0554 57.7567L67.6762 57.7833C74.3922 57.8046 75.5417 57.7833 75.217 57.6556C75.1745 57.6343 74.323 55.1597 73.3278 52.1529C70.3796 43.2869 67.1599 33.5907 63.5891 22.8462L60.2417 12.7721L52.6476 12.7296L45.0535 12.6817L44.963 12.9105ZM114.896 25.5124C114.901 39.8917 114.864 39.0136 115.545 40.4026C117.828 45.0378 124.571 44.5322 126.359 39.5937L126.566 39.0295L126.588 25.8317L126.614 12.6391H114.891L114.896 25.5124ZM154.037 39.6415C153.324 41.8075 151.68 46.762 150.392 50.6522C149.099 54.5371 148.045 57.7461 148.045 57.7833C148.045 57.8206 151.36 57.8525 155.41 57.8525C162.392 57.8525 162.775 57.8419 162.717 57.6928C162.68 57.6024 161.035 52.6532 159.061 46.6822C157.087 40.7165 155.442 35.8046 155.405 35.7673C155.373 35.7248 154.756 37.4703 154.037 39.6415Z" fill="#5C5C5C"/>
<path fill-rule="evenodd" clip-rule="evenodd" d="M60.3109 12.7509C60.3109 12.8147 63.6636 22.9366 67.756 35.2458L75.1957 57.6237L75.2224 49.0078L75.249 40.3972L75.4831 40.8496C75.7226 41.3072 76.1164 42.047 76.7497 43.2231C76.9359 43.569 77.3351 44.33 77.6331 44.9047C77.9311 45.4848 78.3515 46.2831 78.5644 46.6822C78.7719 47.0866 79.1924 47.8849 79.4957 48.4597C79.799 49.0397 80.1449 49.6943 80.2727 49.9231C80.3951 50.1466 80.741 50.8012 81.039 51.3813C81.337 51.956 81.6936 52.6319 81.8319 52.882C82.1832 53.51 82.8431 54.7712 83.5136 56.075C83.8223 56.6764 84.1575 57.3097 84.2586 57.4853L84.4396 57.8046L101.144 57.8206C110.33 57.8259 117.684 57.7993 117.482 57.7567C117.285 57.7141 116.812 57.6769 116.428 57.6716C115.62 57.6662 114.747 57.5279 113.214 57.1607C112.214 56.9212 110.505 56.2773 109.547 55.7823C108.861 55.4205 107.711 54.7446 107.568 54.6169C107.515 54.5637 107.35 54.4413 107.211 54.3402C105.993 53.4674 104.801 52.3764 103.832 51.2429C103.475 50.8278 101.725 48.2681 101.725 48.167C101.725 48.1403 101.522 47.6933 101.278 47.1718C100.426 45.3677 100.085 44.1757 99.7236 41.733C99.5533 40.5569 99.5426 40.0087 99.5426 26.5767V12.6391H84.4662V29.4558L84.232 29.046C84.1043 28.8225 83.8116 28.285 83.5828 27.8592C83.354 27.4335 82.5663 25.9966 81.8319 24.6715C81.0975 23.3411 80.2833 21.8457 80.0172 21.3454C79.7511 20.8399 79.4372 20.2811 79.3201 20.0895C79.203 19.9033 79.1072 19.733 79.1072 19.717C79.1072 19.6851 78.6176 18.7804 78.112 17.881C78.0003 17.6788 77.7449 17.2051 77.5426 16.8326C77.3457 16.4548 77.1488 16.1089 77.1116 16.0556C77.0743 16.0078 76.8934 15.6884 76.7124 15.3479C76.5315 15.0126 76.2335 14.4591 76.0525 14.1185C75.8663 13.7833 75.6108 13.3096 75.4831 13.0702L75.2543 12.6391H67.7826C61.8648 12.6391 60.3109 12.6604 60.3109 12.7509ZM170.114 23.3145V33.9899L178.043 57.8525H198V42.7175H185.191V12.6391H170.114V23.3145ZM48.9224 46.6982C46.8948 52.8022 45.2504 57.8099 45.2664 57.8259C45.2823 57.8419 48.6031 57.8419 52.6529 57.8312L60.0129 57.8046L56.3515 46.7407C54.3346 40.658 52.6689 35.6609 52.6476 35.6396C52.6263 35.613 50.95 40.5941 48.9224 46.6982Z" fill="#A3A3A3"/>
<path fill-rule="evenodd" clip-rule="evenodd" d="M55.2928 0.260631C54.3987 0.776838 54.4785 2.52769 55.4152 2.996C56.3837 3.48028 57.4321 3.08115 57.7248 2.10727C58.1718 0.617185 56.6604 -0.537629 55.2928 0.260631ZM12.671 0.563969C12.0218 0.792803 11.2448 1.05889 10.9468 1.16C10.2124 1.4048 10.2018 1.43673 10.6701 1.78797L11.0852 2.09663V10.0845H10.7659C10.5051 10.0845 10.4466 10.1218 10.4466 10.2655C10.4466 10.4464 10.5051 10.4517 12.4901 10.4517C14.4751 10.4517 14.5336 10.4464 14.5336 10.2655C14.5336 10.1271 14.4751 10.0845 14.2622 10.0845H13.9908V7.54608C13.9908 4.67234 13.9642 4.76813 14.688 4.81603C15.4064 4.86392 15.4437 5.00229 15.4437 7.78555V10.0845H15.2148C15.0498 10.0845 14.986 10.1324 14.986 10.2655C14.986 10.4464 15.0498 10.4517 16.987 10.4517C18.9241 10.4517 18.9826 10.4464 18.9826 10.2655C18.9826 10.1218 18.9241 10.0845 18.6686 10.0845H18.3546L18.328 7.37578C18.3014 4.29982 18.2535 4.08163 17.5564 3.61332C17.1626 3.35255 15.8321 3.27273 15.6086 3.50156C15.5448 3.5601 15.4437 3.61332 15.3745 3.61332C15.3106 3.61332 14.9807 3.79958 14.6454 4.02309L14.0334 4.43286L14.0121 2.29353C13.9961 1.11211 13.9536 0.148874 13.9163 0.154196C13.8844 0.154196 13.3203 0.340457 12.671 0.563969ZM0.0212869 2.53301C0.053218 4.71492 0.0904704 4.82135 0.532173 3.86344C1.224 2.36803 2.28302 1.23983 3.20368 1.01099L3.4538 0.952454V10.0792L2.8418 10.1058C2.34156 10.1271 2.22448 10.159 2.19787 10.2921C2.17126 10.4411 2.3522 10.4517 4.99178 10.4517C7.75376 10.4517 7.8123 10.4464 7.8123 10.2655C7.8123 10.1005 7.75376 10.0845 7.17901 10.0845H6.5404V0.957776L6.83842 1.02164C7.82826 1.23451 8.74892 2.22967 9.69087 4.09227C9.99953 4.69895 9.99421 4.7362 9.99421 2.56494V0.606542H0L0.0212869 2.53301ZM28.9768 0.686369C28.9768 0.728943 29.046 0.792803 29.1365 0.819412C29.2216 0.851343 29.4771 0.995029 29.7006 1.13339L30.1103 1.39416L30.1316 5.73669L30.1582 10.0845H29.6101C29.1258 10.0845 29.0673 10.1058 29.0673 10.2655C29.0673 10.4464 29.1258 10.4517 32.404 10.4464C36.1026 10.4411 36.9275 10.34 37.6512 9.78652C37.6991 9.74927 37.8588 9.63219 38.0025 9.52044C39.0774 8.71153 39.0828 6.8915 38.0131 6.02938C37.6459 5.73669 36.8849 5.3482 36.672 5.34288C36.6082 5.34288 36.4059 5.28966 36.2197 5.2258L35.8844 5.10873L36.4059 4.94907C37.6246 4.57123 38.1728 3.98584 38.226 3.00664C38.2898 1.76668 37.6619 1.12807 35.9962 0.739585C35.3363 0.585255 28.9768 0.537361 28.9768 0.686369ZM33.8941 0.984386C34.2773 1.10146 34.7402 1.48995 34.8201 1.76136C35.3203 3.51753 34.7881 4.981 33.6493 4.981H33.3353V2.93214C33.3353 1.46334 33.3619 0.877951 33.4364 0.877951C33.495 0.877951 33.6972 0.925846 33.8941 0.984386ZM56.9052 3.50688C56.554 3.63993 56.0857 3.81022 55.8569 3.87408C55.6333 3.94327 55.2502 4.07631 55.0054 4.1721C54.7606 4.26789 54.5158 4.3424 54.4572 4.3424C54.0634 4.3424 53.9943 4.60848 54.3136 4.88521C54.4892 5.03954 54.6648 5.16194 54.702 5.16194C54.7393 5.16194 54.7659 6.26886 54.7659 7.6259V10.0845H54.4519C54.1912 10.0845 54.1326 10.1218 54.1326 10.2655C54.1326 10.4464 54.1912 10.4517 56.2241 10.4517C58.2516 10.4517 58.3102 10.4464 58.3102 10.2655C58.3102 10.1218 58.2516 10.0845 57.9909 10.0845H57.6769V6.66799C57.6769 4.78942 57.645 3.25144 57.6077 3.25144C57.5705 3.25144 57.2512 3.36852 56.9052 3.50688ZM61.4926 3.49092C61.1626 3.61864 60.6517 3.79958 60.3537 3.89005C58.5284 4.44351 58.4273 4.52333 58.9275 4.94907L59.3107 5.27902V10.0845H58.9914C58.7359 10.0845 58.6721 10.1218 58.6721 10.2655C58.6721 10.4464 58.7359 10.4517 60.7156 10.4517C62.7006 10.4517 62.7591 10.4464 62.7591 10.2655C62.7591 10.1271 62.7006 10.0845 62.4877 10.0845H62.2163V7.53543C62.2163 4.66702 62.1844 4.80006 62.9241 4.80006C63.6319 4.80006 63.7596 5.31627 63.7596 8.14211V10.0845H63.4882C63.2753 10.0845 63.2168 10.1271 63.2168 10.2655C63.2168 10.4464 63.2753 10.4517 65.2604 10.4517C67.24 10.4517 67.3039 10.4464 67.3039 10.2655C67.3039 10.1165 67.24 10.0845 66.942 10.0845H66.5748L66.5695 7.46625C66.5642 5.22048 66.5429 4.78942 66.4098 4.46479C65.867 3.12372 64.4568 2.95875 62.8709 4.04438C62.1631 4.52866 62.2163 4.54462 62.2163 3.84215C62.2163 3.51753 62.1844 3.25144 62.1471 3.25144C62.1099 3.25676 61.8119 3.3632 61.4926 3.49092ZM42.1428 3.55478C41.8714 3.66654 41.105 3.93794 40.4398 4.15613C39.1147 4.59784 39.0721 4.64041 39.599 5.07147L39.9662 5.36949V7.20548C39.9662 9.98343 40.3014 10.6327 41.7436 10.6327C42.2013 10.6327 43.3189 10.2335 43.5051 9.99939C43.569 9.92489 44.032 9.63219 44.0958 9.63219C44.1224 9.63219 44.1437 9.81313 44.1437 10.042V10.4517H45.9105C47.6241 10.4517 47.6827 10.4464 47.6827 10.2655C47.6827 10.1218 47.6241 10.0845 47.3687 10.0845H47.0494V3.32062L46.7993 3.36852C46.2565 3.47495 43.4732 4.48608 43.4413 4.58719C43.42 4.65106 43.569 4.81603 43.7712 4.95439L44.1331 5.20984L44.1384 7.1363L44.1437 9.06809L43.8298 9.17452C42.9517 9.4619 42.8665 9.19581 42.808 5.9123C42.7814 4.49673 42.7335 3.34191 42.7015 3.34191C42.6696 3.34723 42.4195 3.4377 42.1428 3.55478ZM21.9362 3.5601C18.4983 4.54462 18.5675 9.59494 22.032 10.4996C23.2826 10.8296 24.6502 10.505 25.4485 9.69073C25.9328 9.20113 25.9008 9.13195 25.209 9.11066C24.4427 9.08938 22.6014 8.17936 22.8941 7.96649C22.9154 7.95053 23.1761 7.81748 23.4635 7.66847C26.5395 6.10389 25.241 2.61283 21.9362 3.5601ZM50.1839 3.54414C48.8747 3.99116 48.4171 4.48076 48.3426 5.52382C48.2628 6.66267 48.7045 7.3811 49.8912 8.02503C51.5143 8.90844 51.5729 8.95101 51.642 9.30757C51.8177 10.2602 50.6735 10.6114 50.0775 9.79185C49.8912 9.52576 49.7103 9.2916 49.6783 9.26499C49.6517 9.23838 49.5293 9.07873 49.4069 8.90312C49.2845 8.7275 49.1355 8.51995 49.077 8.44545C49.0131 8.37094 48.8854 8.20597 48.7896 8.07825C48.5608 7.79088 48.5129 7.84409 48.4064 8.50399C48.2628 9.38739 48.1563 9.94085 48.0978 10.0952C48.0286 10.2708 48.135 10.3081 49.2313 10.4996C51.9614 10.9679 53.808 10.0633 53.808 8.26451C53.808 7.25338 53.4514 6.75846 52.254 6.10389C51.9933 5.9602 51.5675 5.72604 51.3015 5.58236C50.3808 5.08211 50.1094 4.38497 50.6735 3.98584C51.0833 3.69314 51.3281 3.73572 51.5888 4.16146C51.7112 4.36368 51.8443 4.52333 51.8762 4.52333C51.9135 4.52333 51.9667 4.59784 51.9933 4.69363C52.0252 4.7841 52.121 4.93843 52.2062 5.03422C52.2966 5.13001 52.5042 5.40142 52.6638 5.6409C53.0523 6.21032 53.0523 6.21032 53.3024 5.23112C53.6962 3.69314 53.7601 3.83683 52.5414 3.52285C52.0838 3.40577 50.5405 3.42174 50.1839 3.54414ZM69.986 3.62396C69.3368 3.84747 68.7461 4.24128 68.4694 4.64041C68.3576 4.80006 68.2405 4.95439 68.2139 4.981C68.1873 5.00761 68.1181 5.13001 68.0596 5.25241C67.1921 7.15227 67.8307 9.45126 69.4432 10.2176C70.8961 10.9094 72.6842 10.6912 73.6793 9.69605C74.1636 9.2171 74.1317 9.13195 73.4558 9.11066C72.7853 9.08938 72.3649 8.93505 71.5932 8.41884C71.0397 8.04632 70.9067 7.89731 71.1409 7.89731C71.6251 7.90263 72.8704 6.91811 73.2004 6.26354C73.5356 5.60364 73.4718 4.49673 73.078 4.11356C72.3861 3.44302 71.1143 3.24612 69.986 3.62396ZM76.1326 3.63993C75.0151 4.03373 74.5414 4.6617 74.5414 5.75797C74.5361 6.97665 74.9778 7.47689 76.899 8.45077C78.0378 9.02552 78.2613 9.72266 77.4471 10.1431C76.9469 10.4038 76.6701 10.2868 76.138 9.5843C75.8719 9.23306 75.5951 8.87651 75.5206 8.78604C75.4515 8.70089 75.2812 8.46673 75.1481 8.26451C74.7703 7.69508 74.765 7.70041 74.5255 9.03616C74.4457 9.48851 74.3605 9.94617 74.3392 10.0526C74.2913 10.2814 74.3552 10.3027 75.4781 10.4996C77.9101 10.9147 79.6397 10.2282 80.0228 8.68493C80.2304 7.86538 79.48 6.34869 78.868 6.34869C78.8095 6.34869 78.7456 6.31676 78.7296 6.27418C78.7137 6.23693 78.5168 6.11453 78.2933 6.00278C76.5637 5.15662 76.0847 4.38497 76.9894 3.90069C77.3939 3.68782 77.5323 3.76765 78.0751 4.54994C78.3624 4.95972 78.6498 5.35352 78.7137 5.41738C78.7775 5.48124 78.8999 5.65686 78.9904 5.80587C79.1926 6.15178 79.2565 6.14646 79.3842 5.74733C79.5173 5.3482 79.8312 4.06034 79.8366 3.92198C79.8366 3.82619 79.5439 3.71443 78.7935 3.52285C78.1389 3.35788 76.7712 3.42174 76.1326 3.63993ZM82.2154 3.63993C81.002 4.06566 80.3953 5.06083 80.6614 6.19968C80.8903 7.20016 81.3266 7.61526 83.0349 8.4827C84.1206 9.03616 84.3334 9.72798 83.5352 10.1431C83.0349 10.4038 82.7475 10.2868 82.2633 9.63219C82.0185 9.30224 81.7471 8.94569 81.6513 8.83393C81.5555 8.72218 81.3692 8.46673 81.2362 8.26451C80.9328 7.81216 80.8583 7.80684 80.7892 8.2379C80.7572 8.42948 80.6774 8.82861 80.6082 9.12663C80.3155 10.3932 80.2304 10.2708 81.5608 10.4996C84.0248 10.92 85.7543 10.2123 86.1162 8.63703C86.3557 7.59929 85.8288 6.77443 84.4558 6.04535C83.2744 5.41206 83.1467 5.33224 82.9019 5.05019C82.524 4.6138 82.5932 4.16146 83.0775 3.90069C83.4341 3.71443 83.6363 3.77829 83.8864 4.16146C84.0194 4.36368 84.1525 4.52333 84.1844 4.52333C84.2163 4.52333 84.2909 4.64041 84.3547 4.77346C84.4133 4.91182 84.5729 5.1513 84.7006 5.3003C84.8337 5.44931 85.004 5.68879 85.0838 5.82184C85.1689 5.9602 85.2754 6.07728 85.3286 6.07728C85.4031 6.07728 85.9353 4.10824 85.9246 3.8794C85.9193 3.82619 85.5255 3.68782 84.8762 3.52285C84.227 3.35788 82.854 3.42174 82.2154 3.63993ZM22.479 4.56059C23.1336 5.42271 23.2293 6.73717 22.6972 7.54075L22.5482 7.75894L22.33 7.49286C21.7339 6.75314 21.255 5.58768 21.255 4.88521C21.2603 3.90069 21.8563 3.74104 22.479 4.56059ZM70.1883 4.10824C71.1409 4.60316 71.5613 6.17839 71.0291 7.27999C70.7683 7.82813 70.7896 7.83345 70.2734 7.06712C69.257 5.53978 69.2038 3.58671 70.1883 4.10824ZM34.1761 5.45464C36.2676 6.0826 35.9376 10.0845 33.793 10.0845H33.3353V5.3482H33.5748C33.7025 5.3482 33.9739 5.3961 34.1761 5.45464ZM0.271409 35.2457V57.8524H15.3532V47.9061C15.3532 37.4861 15.3425 37.7096 15.7151 38.4813C15.7896 38.6356 16.1461 39.2529 16.508 39.8596C16.8699 40.4663 17.1679 41.0091 17.1679 41.0676C17.1679 41.1209 17.2105 41.1687 17.2584 41.1687C17.3063 41.1687 17.3488 41.2113 17.3488 41.2592C17.3488 41.3124 17.6575 41.8659 18.03 42.4939C18.4025 43.1218 18.7112 43.6593 18.7112 43.6912C18.7112 43.7232 18.807 43.8775 18.9241 44.0318C19.0411 44.1862 19.1902 44.4469 19.2647 44.6119C19.3338 44.7716 19.4243 44.9046 19.4616 44.9046C19.4988 44.9046 19.5307 44.9472 19.5307 45.0004C19.5307 45.0536 19.7702 45.4953 20.0629 45.9796C20.3556 46.4692 20.7494 47.1557 20.9357 47.5069C21.1273 47.8582 21.3348 48.2094 21.404 48.2892C21.4732 48.3637 21.5264 48.4542 21.5264 48.4808C21.5264 48.5127 21.6807 48.7948 21.8723 49.1141C22.0586 49.4334 22.2661 49.7953 22.33 49.923C22.6972 50.6361 22.8568 50.668 23.1655 50.0826C23.4582 49.5132 23.8999 48.7043 23.9797 48.5979C24.0595 48.4861 24.5917 47.5229 24.778 47.1397C24.8525 46.9907 24.9855 46.7619 25.0707 46.6395C25.1558 46.5118 25.4219 46.0435 25.6614 45.5911C25.9062 45.1388 26.2148 44.5747 26.3585 44.3352C26.4969 44.0957 26.614 43.8615 26.614 43.819C26.614 43.7711 26.6459 43.7232 26.6831 43.7072C26.7204 43.6912 26.8534 43.4731 26.9758 43.2229C27.0982 42.9675 27.226 42.744 27.2526 42.7174C27.2845 42.6961 27.508 42.3023 27.7475 41.8553C28.3967 40.6525 28.418 40.61 28.6628 40.2108C28.7852 40.0139 28.9662 39.684 29.0673 39.4818C29.1631 39.2849 29.3493 38.9549 29.4717 38.7527C29.5995 38.5558 29.7485 38.2844 29.8123 38.162C29.9081 37.9757 29.9347 39.7851 29.972 47.8262L30.0199 57.714L37.4863 35.251C41.5946 22.8993 44.9313 12.756 44.9047 12.7135C44.8781 12.6709 41.5095 12.639 37.4224 12.639H29.9826L29.3547 13.9375C29.0087 14.6506 28.5351 15.6457 28.2956 16.146C28.0562 16.6462 27.5666 17.6733 27.2047 18.4237C26.8428 19.1794 26.3319 20.2437 26.0711 20.7972C25.8051 21.3453 25.3155 22.3724 24.9802 23.0749C23.7828 25.5601 23.0963 26.997 22.9739 27.2897C22.8994 27.4547 22.8249 27.5877 22.7983 27.5824C22.7717 27.5824 21.0847 24.219 19.0465 20.1107L15.3425 12.639H0.271409V35.2457ZM147.337 13.7565C147.13 14.3685 146.922 14.9965 146.869 15.1455C146.811 15.2945 146.544 16.0928 146.273 16.923C146.002 17.7478 145.698 18.6738 145.597 18.9718C145.496 19.2752 145.23 20.0734 145.006 20.7493C144.783 21.4251 144.522 22.2074 144.426 22.4842C144.331 22.7609 144.065 23.5592 143.836 24.2616C143.607 24.9641 143.341 25.7623 143.245 26.0391C143.149 26.3158 142.883 27.1141 142.654 27.8165C142.425 28.519 142.122 29.4397 141.978 29.8654C141.829 30.2911 141.563 31.0947 141.388 31.6429C141.207 32.1963 140.935 32.9946 140.792 33.4203C140.648 33.8461 140.382 34.6496 140.201 35.1978C140.025 35.7512 139.759 36.5495 139.61 36.9752C139.467 37.401 139.2 38.2045 139.02 38.7527C138.844 39.3061 138.541 40.2268 138.344 40.8069C138.147 41.3816 137.881 42.1799 137.753 42.5843C137.62 42.9835 137.354 43.7817 137.157 44.3618C136.96 44.9365 136.694 45.7348 136.566 46.1392C136.438 46.5384 136.178 47.3366 135.981 47.9167C135.779 48.4914 135.518 49.2897 135.39 49.6942C135.188 50.3221 134.773 51.578 134.054 53.7014C133.661 54.8882 133.08 56.6443 132.942 57.0754C132.868 57.3255 132.777 57.6022 132.74 57.6927C132.681 57.8417 133.064 57.8524 140.329 57.8311L147.976 57.8045L151.675 46.6395C153.707 40.4982 155.394 35.533 155.421 35.6075C155.448 35.682 157.119 40.7217 159.136 46.7991L162.797 57.8524H170.364C175.005 57.8524 177.927 57.8204 177.927 57.7672C177.927 57.7193 176.17 52.387 174.021 45.9211C171.871 39.4552 170.114 34.1015 170.114 34.027C170.114 33.9152 168.757 29.7324 168.305 28.4551C168.246 28.3008 167.986 27.5026 167.714 26.6777C167.438 25.8475 167.177 25.0492 167.124 24.9002C167.07 24.7459 166.804 23.9476 166.533 23.1228C166.261 22.2926 165.99 21.4943 165.937 21.3453C165.884 21.191 165.617 20.3927 165.346 19.5679C165.075 18.7377 164.771 17.817 164.67 17.5137C164.569 17.2157 164.303 16.4121 164.08 15.7362C163.856 15.0604 163.595 14.2834 163.499 14.0067C163.404 13.7299 163.271 13.3095 163.201 13.07L163.084 12.639H147.705L147.337 13.7565Z" fill="#040404"/>
<path fill-rule="evenodd" clip-rule="evenodd" d="M29.9716 57.7833C29.9716 57.8206 32.9039 57.8418 36.4907 57.8312C40.0722 57.8206 41.9668 57.7993 40.6895 57.7833C34.6707 57.7194 29.9716 57.7194 29.9716 57.7833Z" fill="#3A3A3A"/>
<path fill-rule="evenodd" clip-rule="evenodd" d="M47.8207 12.7029C54.9412 12.7668 60.3108 12.7668 60.3108 12.7082C60.3108 12.671 56.8836 12.6497 52.7007 12.6603C48.5178 12.671 46.32 12.6923 47.8207 12.7029ZM59.9702 57.6662C60.0021 57.7886 60.9281 57.8046 67.6282 57.8046H75.2489L67.6707 57.7833C61.753 57.762 60.0766 57.7354 60.0128 57.6449C59.9542 57.5598 59.9436 57.5704 59.9702 57.6662Z" fill="#686868"/>
</svg>
