<svg width="13" height="13" viewBox="0 0 13 13" fill="none" xmlns="http://www.w3.org/2000/svg">
<path d="M10.2749 13H2.06208C0.927177 13 0 12.023 0 10.8271V2.1729C0 0.977002 0.927177 0 2.06208 0H10.2749C11.4098 0 12.337 0.977002 12.337 2.1729V10.8271C12.337 12.0283 11.4149 13 10.2749 13Z" fill="white"/>
<path d="M6.17171 9.84014C5.3256 9.84014 4.53015 9.49311 3.9323 8.86313C3.33445 8.23315 3.00513 7.39496 3.00513 6.50338C3.00513 5.6118 3.33445 4.77361 3.9323 4.14363C4.53015 3.51365 5.3256 3.16663 6.17171 3.16663C7.01782 3.16663 7.81327 3.51365 8.41112 4.14363C9.00897 4.77361 9.3383 5.6118 9.3383 6.50338C9.3383 7.39496 9.00897 8.23315 8.41112 8.86313C7.8082 9.49311 7.01782 9.84014 6.17171 9.84014ZM6.17171 3.87669C4.79868 3.87669 3.67898 5.05123 3.67898 6.50338C3.67898 7.9502 4.79361 9.13007 6.17171 9.13007C7.54474 9.13007 8.66445 7.95554 8.66445 6.50338C8.65938 5.05656 7.54474 3.87669 6.17171 3.87669Z" fill="#101119"/>
<path d="M9.95541 3.056C10.2912 3.056 10.5634 2.76917 10.5634 2.41533C10.5634 2.0615 10.2912 1.77466 9.95541 1.77466C9.61962 1.77466 9.34741 2.0615 9.34741 2.41533C9.34741 2.76917 9.61962 3.056 9.95541 3.056Z" fill="#101119"/>
</svg>
