<svg width="15" height="13" viewBox="0 0 15 13" fill="none" xmlns="http://www.w3.org/2000/svg">
<path d="M0 11.1367C1.52176 11.227 2.85247 10.8521 4.15025 9.85945C2.8393 9.62343 1.9302 8.99173 1.43612 7.68669C1.81821 7.63116 2.15418 7.73528 2.54944 7.56868C1.25825 6.9717 0.421614 6.07621 0.388676 4.52821C0.797113 4.56292 1.10674 4.84753 1.59423 4.80588C0.408442 3.58414 0.0461138 2.25133 0.790523 0.633912C2.02901 2.13332 3.47831 3.15375 5.2504 3.63273C5.34921 3.6605 5.44143 3.68827 5.54025 3.70909C5.9948 3.82016 6.53499 4.05618 6.81168 4.02147C7.28599 3.95899 6.81168 3.38283 6.93026 2.63313C7.30576 0.30071 9.7432 -0.761372 11.5482 0.606145C12.0752 1.00876 12.4903 1.00182 13.0107 0.758863C13.2808 0.633912 13.5575 0.508962 13.8803 0.363186C13.8078 1.02959 13.3203 1.3975 12.9316 1.89036C13.373 1.99449 13.7288 1.8626 14.1372 1.72376C13.9988 2.20274 13.6563 2.47347 13.3467 2.73725C13.0239 3.00798 12.8987 3.29259 12.8855 3.73686C12.6879 10.4634 5.43485 15.6627 0.474319 11.5255C-0.00658288 11.1228 0.461139 11.5255 0 11.1367Z" fill="white"/>
</svg>
